# AST/ASF file generated using VICON BodyLanguage
# -----------------------------------------------
:version 1.10
:name VICON
:units
  mass 1.0
  length 0.45
  angle deg
:documentation
   .ast/.asf automatically generated from VICON data using
   VICON BodyBuilder and BodyLanguage model FoxedUp or BRILLIANT.MOD
:root
   order TX TY TZ RX RY RZ
   axis XYZ
   position 0 0 0  
   orientation 0 -0 0 
:bonedata
  begin
     id 1 
     name lhipjoint
     direction 0.515797 -0.759363 0.396637 
     length 2.47888 
     axis 0 -0 0  XYZ
  end
  begin
     id 2 
     name lfemur
     direction 0.34202 -0.939693 0  
     length 6.81885  
     axis 0 -0 20  XYZ
    dof rx ry rz
    limits (-160.0 20.0)
           (-70.0 70.0)
           (-60.0 70.0)
  end
  begin
     id 3 
     name ltibia
     direction 0.342037 -0.939687 0   
     length 7.89258   
     axis 0 -0 20   XYZ
    dof rx
    limits (-10.0 170.0)
  end
  begin
     id 4 
     name lfoot
     direction 0.173497 -0.476678 0.861787   
     length 2.51543   
     axis -90 -1.13533e-015 20   XYZ
    dof rx rz
    limits (-45.0 90.0)
           (-70.0 20.0)
  end
  begin
     id 5 
     name ltoes
     direction 1.53564e-011 -4.21897e-011 1   
     length 1.21388   
     axis -90 -1.13533e-015 20   XYZ
    dof rx
    limits (-90.0 20.0)
  end
  begin
     id 6 
     name rhipjoint
     direction -0.489454 -0.772941 0.403729   
     length 2.43534  
     axis 0 -0 0  XYZ 
  end
  begin
     id 7 
     name rfemur
     direction -0.34202 -0.939693 0   
     length 7.10357   
     axis 0 -0 -20   XYZ
    dof rx ry rz
    limits (-160.0 20.0)
           (-70.0 70.0)
           (-70.0 60.0)
  end
  begin
     id 8 
     name rtibia
     direction -0.34202 -0.939693 0   
     length 9.16127   
     axis 0 -0 -20   XYZ
    dof rx
    limits (-10.0 170.0)
 end
 begin
     id 9 
     name rfoot
     direction -0.270974 -0.748671 0.605033   
     length 1.74894  
     axis -90 1.13533e-015 -20   XYZ
    dof rx rz
    limits (-45.0 90.0)
           (-20.0 70.0)
  end
  begin
     id 10 
     name rtoes
     direction -1.53557e-011 -4.21759e-011 1   
     length 0.787585   
     axis -90 1.13533e-015 -20   XYZ
    dof rx
    limits (-90.0 20.0)
  end
  begin
     id 11 
     name lowerback
     direction -0.0140249 0.999561 0.0260968   
     length 2.16963   
     axis 0 -0 0   XYZ
    dof rx ry rz
    limits (-20.0 45.0)
           (-30.0 30.0)
           (-30.0 30.0)
  end
  begin
     id 12 
     name upperback
     direction 0.00860018 0.999959 -0.002711   
     length 2.1726   
     axis 0 -0 0   XYZ
    dof rx ry rz
    limits (-20.0 45.0)
           (-30.0 30.0)
           (-30.0 30.0)
  end
  begin
     id 13 
     name thorax
     direction 0.015211 0.999782 -0.0143191   
     length 2.17061   
     axis 0 -0 0   XYZ
    dof rx ry rz
    limits (-20.0 45.0)
           (-30.0 30.0)
           (-30.0 30.0)
  end
  begin
     id 14 
     name lowerneck
     direction -0.0140143 0.999447 0.030145   
     length 2.26749   
     axis 0 -0 0   XYZ
    dof rx ry rz
    limits (-20.0 45.0)
           (-30.0 30.0)
           (-30.0 30.0)
  end
  begin
     id 15 
     name upperneck
     direction 0.118062 0.961438 -0.248392   
     length 2.22728   
     axis 0 -0 0   XYZ
    dof rx ry rz
    limits (-20.0 45.0)
           (-30.0 30.0)
           (-30.0 30.0)
  end
  begin
     id 16
     name head
     direction 0.0431885 0.9954 -0.085514  
     length 2.28786  
     axis 0 -0 0   XYZ
    dof rx ry rz
    limits (-20.0 45.0)
           (-30.0 30.0)
           (-30.0 30.0)
  end
  begin
     id 17 
     name lclavicle
     direction 0.912126 0.409548 0.0172323  
     length 4.31571  
     axis 0 -0 0   XYZ
    dof ry rz
    limits (-20.0 10.0)
           (0.0 20.0)
  end
  begin
     id 18 
     name lhumerus
     direction 1 -4.48977e-011 1.93091e-027   
     length 5.13658   
     axis 180 -30 -90   XYZ
    dof rx ry rz
    limits (-60.0 90.0)
           (-90.0 90.0)
           (-90.0 90.0)
  end
  begin
     id 19
     name lradius
     direction 1 -4.48916e-011 6.84018e-027   
     length 3.22473   
     axis 180 -30 -90   XYZ
    dof rx
    limits (-10.0 170.0)
  end
  begin
     id 20
     name lwrist
     direction 1 -4.48987e-011 7.01981e-027   
     length 1.61236   
     axis -4.37994e-015 90 90   XYZ
    dof ry
    limits (-180.0 0.0)
 end
  begin
     id 21 
     name lhand
     direction 1 -4.49037e-011 1.40335e-026   
     length 0.936406   
     axis -8.96029e-015 90 90   XYZ
    dof rx rz
    limits (-90.0 90.0)
           (-45.0 45.0)
  end
  begin
     id 22 
     name lfingers
     direction 1 -4.48886e-011 2.8104e-026   
     length 0.754955   
     axis -1.79203e-014 90 90   XYZ
    dof rx
    limits (0.0 90.0)
  end
  begin
     id 23
     name lthumb
     direction 0.707107 -6.34937e-011 0.707107   
     length 1.08397   
     axis -90 45 -4.48555e-014   XYZ
    dof rx rz
    limits (-45.0 45.0)
           (-45.0 45.0)
  end
  begin
     id 24 
     name rclavicle
     direction -0.947962 0.317997 0.0156638   
     length 4.86918  
     axis 0 -0 0   XYZ 
    dof ry rz
    limits (-10.0 20.0)
           (-20.0 0.0)
  end
  begin
     id 25 
     name rhumerus
     direction -1 -4.48951e-011 2.80534e-018  
     length 5.60911   
     axis 180 30 90   XYZ
    dof rx ry rz
    limits (-90.0 60.0)
           (-90.0 90.0)
           (-90.0 90.0)
  end
  begin
     id 26 
     name rradius
     direction -1 -4.4898e-011 2.11315e-027   
     length 3.38704   
     axis 180 30 90   XYZ
    dof rx
    limits (-10.0 170.0)
  end
  begin
     id 27 
     name rwrist
     direction -1 -4.48933e-011 7.02314e-027   
     length 1.69352   
     axis -4.37994e-015 -90 -90   XYZ
    dof ry
    limits (-180.0 0.0)
  end
  begin
     id 28
     name rhand
     direction -1 -4.48937e-011 1.40458e-026   
     length 0.755878   
     axis -8.96029e-015 -90 -90   XYZ
    dof rx rz
    limits (-90.0 90.0)
           (-45.0 45.0)
  end
  begin
     id 29
     name rfingers
     direction -1 -4.4901e-011 2.80737e-026   
     length 0.609409   
     axis -1.79203e-014 -90 -90   XYZ
    dof rx
    limits (0.0 90.0)
  end
  begin
     id 30
     name rthumb
     direction -0.707107 -6.34968e-011 0.707107   
     length 0.874992   
     axis -90 -45 4.48555e-014   XYZ
    dof rx rz
    limits (-45.0 45.0)
           (-45.0 45.0)
  end
:hierarchy
  begin
    root lhipjoint rhipjoint lowerback
    lhipjoint lfemur
    lfemur ltibia
    ltibia lfoot
    lfoot ltoes
    rhipjoint rfemur
    rfemur rtibia
    rtibia rfoot
    rfoot rtoes
    lowerback upperback
    upperback thorax
    thorax lowerneck lclavicle rclavicle
    lowerneck upperneck
    upperneck head
    lclavicle lhumerus
    lhumerus lradius
    lradius lwrist
    lwrist lhand lthumb
    lhand lfingers
    rclavicle rhumerus
    rhumerus rradius
    rradius rwrist
    rwrist rhand rthumb
    rhand rfingers
  end

#!OML:ASF C:\ViconDB\ViconDB\414\Spring2016\041811\Spring2016.ASF
:FULLY-SPECIFIED
:DEGREES
46
root 9.51284 18.212 1.787 -175.715 -3.88561 -177.979
lowerback -3.96993 1.42452 -2.96455
upperback -0.0858909 2.02035 0.213225
thorax 2.02639 0.974755 1.99306
lowerneck -11.3212 1.59686 -3.68771
upperneck 20.3178 -0.298366 10.8211
head 8.14694 0.263276 4.17141
rclavicle -1.36664e-015 -1.98785e-015
rhumerus -39.3879 -16.3958 -88.7866
rradius 34.4282
rwrist 40.6595
rhand -35.1775 -13.5769
rfingers 7.12502
rthumb -8.31606 -43.3932
lclavicle -1.36664e-015 -1.98785e-015
lhumerus -36.5166 -1.97389 91.2942
lradius 24.5413
lwrist -35.1437
lhand -27.4097 16.0157
lfingers 7.12502
lthumb -0.815787 45.9938
rfemur 165.629 50.1042 -165.924
rtibia 30.3465
rfoot -52.6121 -47.8206
rtoes -3.57812e-014
lfemur -8.46009 -6.87877 -20.5344
ltibia 24.79
lfoot -21.8845 2.36645
ltoes -6.08281e-014
47
root 9.50596 18.209 1.78971 -175.867 -3.88044 -178.022
lowerback -3.66048 1.4351 -3.08234
upperback -0.0118012 2.03191 0.251522
thorax 1.9231 0.981187 2.09085
lowerneck -11.3358 1.58869 -3.72985
upperneck 20.291 -0.298536 10.8387
head 8.14041 0.263306 4.18431
rclavicle -1.82136e-014 7.55382e-015
rhumerus -39.3541 -16.616 -88.4988
rradius 34.332
rwrist 41.0293
rhand -35.3478 -13.6113
rfingers 7.12502
rthumb -8.48043 -43.421
lclavicle -1.82136e-014 7.55382e-015
lhumerus -36.5453 -2.31772 91.6343
lradius 24.7457
lwrist -34.6471
lhand -27.403 15.9688
lfingers 7.12502
lthumb -0.80928 45.947
rfemur 165.171 47.6679 -166.389
rtibia 30.4282
rfoot -48.8516 -48.4279
rtoes -7.15625e-015
lfemur -8.2366 -6.90348 -20.6317
ltibia 24.6702
lfoot -21.8368 2.36875
ltoes 1.29707e-014
48
root 9.49876 18.2059 1.79334 -176.001 -3.85084 -178.093
lowerback -3.23991 1.48396 -3.23586
upperback -0.024935 2.08854 0.295809
thorax 1.66347 1.01328 2.21145
lowerneck -11.1982 1.53989 -3.79735
upperneck 20.2372 -0.35878 10.8651
head 8.10146 0.226496 4.19509
rclavicle -1.82882e-014 7.95139e-015
rhumerus -39.4575 -16.8521 -88.1179
rradius 34.3173
rwrist 41.1524
rhand -35.394 -13.699
rfingers 7.12502
rthumb -8.52502 -43.5069
lclavicle -1.82882e-014 7.95139e-015
lhumerus -36.6976 -2.68227 92.0466
lradius 24.966
lwrist -34.2044
lhand -27.3971 15.7911
lfingers 7.12502
lthumb -0.803592 45.7693
rfemur 164.769 45.1902 -166.798
rtibia 30.5952
rfoot -45.0923 -49.0477
rtoes 5.40694e-014
lfemur -8.01366 -6.92443 -20.7519
ltibia 24.5428
lfoot -21.8094 2.34764
ltoes 5.91384e-014
49
root 9.49139 18.2033 1.80007 -176.143 -3.77355 -178.158
lowerback -2.87329 1.51342 -3.25501
upperback 0.0344117 2.11879 0.193781
thorax 1.52026 1.03075 2.10806
lowerneck -11.2207 1.56461 -3.57661
upperneck 20.2237 -0.376842 10.8717
head 8.10455 0.233167 4.15717
rclavicle 1.59028e-014 1.27222e-014
rhumerus -39.3999 -17.178 -88.0023
rradius 34.2391
rwrist 41.3831
rhand -35.4211 -13.6316
rfingers 7.12502
rthumb -8.55114 -43.4385
lclavicle 1.59028e-014 1.27222e-014
lhumerus -36.8057 -3.42428 92.3139
lradius 25.3472
lwrist -33.4604
lhand -27.2884 15.9318
lfingers 7.12502
lthumb -0.698676 45.9104
rfemur 164.402 42.4628 -167.139
rtibia 30.8365
rfoot -41.0296 -49.5619
rtoes -1.59028e-014
lfemur -7.83552 -6.87768 -20.8806
ltibia 24.4334
lfoot -21.6927 2.38816
ltoes -4.01048e-014
50
root 9.48674 18.1965 1.80656 -176.349 -3.71334 -178.289
lowerback -2.44575 1.51543 -3.49502
upperback 0.12335 2.11528 0.221985
thorax 1.36257 1.0295 2.25932
lowerneck -11.1707 1.56676 -3.63267
upperneck 20.1286 -0.352441 10.8924
head 8.0612 0.242235 4.17289
rclavicle 4.52235e-015 4.77083e-015
rhumerus -39.3283 -17.3164 -87.7349
rradius 34.1743
rwrist 41.601
rhand -35.4671 -13.7175
rfingers 7.12502
rthumb -8.59557 -43.5225
lclavicle 4.52235e-015 4.77083e-015
lhumerus -36.8199 -3.64703 92.6073
lradius 25.5705
lwrist -33.1632
lhand -27.3225 15.7882
lfingers 7.12502
lthumb -0.731617 45.7667
rfemur 163.875 39.9117 -167.574
rtibia 31.2086
rfoot -37.0041 -50.2949
rtoes 1.06549e-013
lfemur -7.56093 -6.90446 -21.0762
ltibia 24.3201
lfoot -21.6411 2.42863
ltoes -1.56543e-014
51
root 9.47986 18.189 1.81695 -176.577 -3.59843 -178.378
lowerback -1.92532 1.54359 -3.64414
upperback 0.205798 2.13805 0.236034
thorax 1.14811 1.04319 2.3428
lowerneck -11.2982 1.60405 -3.55928
upperneck 20.1779 -0.295048 10.8114
head 8.09712 0.274064 4.14204
rclavicle -4.8081e-014 -1.98785e-015
rhumerus -39.2442 -17.4794 -87.4933
rradius 34.1187
rwrist 41.6815
rhand -35.4995 -13.6079
rfingers 7.12502
rthumb -8.6268 -43.4116
lclavicle -4.8081e-014 -1.98785e-015
lhumerus -36.8948 -4.08566 92.9906
lradius 25.9138
lwrist -32.5641
lhand -27.1828 15.8012
lfingers 7.12502
lthumb -0.596619 45.7801
rfemur 163.331 37.5114 -167.918
rtibia 31.7099
rfoot -33.067 -51.3663
rtoes 3.49861e-014
lfemur -7.27984 -7.05229 -21.2335
ltibia 24.2407
lfoot -21.6734 2.54372
ltoes 1.6201e-014
52
root 9.4772 18.1828 1.82807 -176.875 -3.55739 -178.507
lowerback -1.25122 1.58519 -3.9395
upperback 0.254106 2.17125 0.313182
thorax 0.80377 1.06437 2.56718
lowerneck -11.1606 1.57014 -3.64411
upperneck 20.1082 -0.294933 10.7246
head 8.04774 0.257499 4.12309
rclavicle 1.09083e-014 -1.86858e-014
rhumerus -39.2362 -17.5811 -87.1181
rradius 34.0565
rwrist 41.6148
rhand -35.6881 -13.5076
rfingers 7.12502
rthumb -8.8088 -43.3037
lclavicle 1.09083e-014 -1.86858e-014
lhumerus -37.0347 -4.56622 93.5035
lradius 26.2503
lwrist -31.9395
lhand -27.0564 15.8776
lfingers 7.12502
lthumb -0.474552 45.8569
rfemur 162.645 35.1136 -168.292
rtibia 32.3972
rfoot -29.105 -52.3315
rtoes 7.31528e-014
lfemur -6.93919 -7.10214 -21.4291
ltibia 24.1628
lfoot -21.6543 2.58976
ltoes 3.91109e-014
